Take.This.Waltz.2011.HDRiP.AC3-5.1.XviD-AXED

IMDB:  
http://www.imdb.com/title/tt1592281/

PLOT INFO:
A happily married woman falls for the artist who lives across the street. 


MEDIAINFO:
General
Format                                   : AVI
Format/Info                              : Audio Video Interleave
File size                                : 1.37 GiB
Duration                                 : 1h 56mn
Overall bit rate                         : 1 686 Kbps

Video
ID                                       : 0
Format                                   : MPEG-4 Visual
Format profile                           : Advanced Simple@L5
Format settings, BVOP                    : 2
Format settings, QPel                    : No
Format settings, GMC                     : No warppoints
Format settings, Matrix                  : Default (H.263)
Muxing mode                              : Packed bitstream
Codec ID                                 : XVID
Codec ID/Hint                            : XviD
Duration                                 : 1h 56mn
Bit rate                                 : 1 295 Kbps
Width                                    : 720 pixels
Height                                   : 400 pixels
Display aspect ratio                     : 16:9
Frame rate                               : 23.976 fps
Color space                              : YUV
Chroma subsampling                       : 4:2:0
Bit depth                                : 8 bits
Scan type                                : Progressive
Compression mode                         : Lossy
Bits/(Pixel*Frame)                       : 0.187
Stream size                              : 1.05 GiB (77%)
Writing library                          : XviD 1.1.2 (UTC 2006-11-01)

Audio
ID                                       : 1
Format                                   : AC-3
Format/Info                              : Audio Coding 3
Mode extension                           : CM (complete main)
Codec ID                                 : 2000
Duration                                 : 1h 56mn
Bit rate mode                            : Constant
Bit rate                                 : 384 Kbps
Channel(s)                               : 6 channels
Channel positions                        : Front: L C R, Side: L R, LFE
Sampling rate                            : 48.0 KHz
Bit depth                                : 16 bits
Compression mode                         : Lossy
Stream size                              : 320 MiB (23%)
Alignment                                : Aligned on interleaves
Interleave, duration                     : 64 ms (1.53 video frames)
Interleave, preload duration             : 192 ms
Title                                    : takethiswaltz


SOURCE: 
720p wmv Digital VOD Rental

NOTES: 
Heres the new film starring Seth Rogen, Michelle Williams & Sarah Silverman 
(full frontal nudity from Williams & Silverman too), and directed by Sarah Polley.The film hits theatres on June 7!


Poster:

 
http://i.imgur.com/A0OyD.jpg


Screenshots:

 
http://i.imgur.com/WgtM6.jpg


ENJOY!